HIERARCHY
ROOT Hips
{
	OFFSET 0.00000 0.00000 0.00000
	CHANNELS 6 Xposition Yposition Zposition Zrotation Yrotation Xrotation 
	JOINT LHipJoint
	{
		OFFSET 0 0 0
		CHANNELS 3 Zrotation Yrotation Xrotation
		JOINT LeftHip
		{
			OFFSET 1.86795 -1.59681 0.65681
			CHANNELS 3 Zrotation Yrotation Xrotation
			JOINT LeftKnee
			{
				OFFSET 2.30491 -6.33268 0.00000
				CHANNELS 3 Zrotation Yrotation Xrotation
				JOINT LeftAnkle
				{
					OFFSET 2.46780 -6.78022 0.00000
					CHANNELS 3 Zrotation Yrotation Xrotation
					JOINT LeftToe
					{
						OFFSET 0.07897 -0.21698 1.59652
						CHANNELS 3 Zrotation Yrotation Xrotation
						End Site
						{
							OFFSET 0.00000 -0.00000 0.82310
						}
					}
				}
			}
		}
	}
	JOINT RHipJoint
	{
		OFFSET 0 0 0
		CHANNELS 3 Zrotation Yrotation Xrotation
		JOINT RightHip
		{
			OFFSET -1.93650 -1.59681 0.65681
			CHANNELS 3 Zrotation Yrotation Xrotation
			JOINT RightKnee
			{
				OFFSET -2.29410 -6.30299 0.00000
				CHANNELS 3 Zrotation Yrotation Xrotation
				JOINT RightAnkle
				{
					OFFSET -2.48738 -6.83403 0.00000
					CHANNELS 3 Zrotation Yrotation Xrotation
					JOINT RightToe
					{
						OFFSET -0.08699 -0.23899 1.89395
						CHANNELS 3 Zrotation Yrotation Xrotation
						End Site
						{
							OFFSET -0.00000 -0.00000 0.96904
						}
					}
				}
			}
		}
	}
	JOINT lowerback
	{
		OFFSET 0 0 0
		CHANNELS 3 Zrotation Yrotation Xrotation
		JOINT Chest
		{
			OFFSET 0.03629 1.99740 -0.07548
			CHANNELS 3 Zrotation Yrotation Xrotation
			JOINT Chest2
			{
				OFFSET 0.03970 1.94298 0.17218
				CHANNELS 3 Zrotation Yrotation Xrotation
				JOINT lowerneck
				{
					OFFSET 0 0 0
					CHANNELS 3 Zrotation Yrotation Xrotation
					JOINT Neck
					{
						OFFSET -0.05054 1.79469 0.04241
						CHANNELS 3 Zrotation Yrotation Xrotation
						JOINT Head
						{
							OFFSET 0.05195 1.78475 -0.22133
							CHANNELS 3 Zrotation Yrotation Xrotation
							End Site
							{
								OFFSET 0.02420 1.80711 -0.07950
							}
						}
					}
				}
				JOINT LeftCollar
				{
					OFFSET 0 0 0
					CHANNELS 3 Zrotation Yrotation Xrotation
					JOINT LeftShoulder
					{
						OFFSET 2.92134 1.19850 0.36056
CHANNELS 3 Zrotation Xrotation Yrotation
						JOINT LeftElbow
						{
OFFSET 0 -4.841370 0.000000
CHANNELS 3 Zrotation Xrotation Yrotation
							JOINT LeftWrist
							{
OFFSET 0 -3.245200 -0.000000
CHANNELS 3 Zrotation Xrotation Yrotation
								JOINT lhand
								{
									OFFSET 0 0 0
CHANNELS 3 Zrotation Xrotation Yrotation
									JOINT LFingers
									{
OFFSET 0 -0.521220 0.000000
CHANNELS 3 Zrotation Xrotation Yrotation
										End Site
										{
OFFSET 0 -0.420220 0.000000
										}
									}
								}
								JOINT LThumb
								{
OFFSET 0 0.000000 0.000000
CHANNELS 3 Zrotation Xrotation Yrotation
									End Site
									{
OFFSET 0 -0.426640 0.426640
									}
								}
							}
						}
					}
				}
				JOINT RightCollar
				{
					OFFSET 0 0 0
					CHANNELS 3 Zrotation Yrotation Xrotation
					JOINT RightShoulder
					{
						OFFSET -2.84327 1.20795 0.50191
CHANNELS 3 Zrotation Xrotation Yrotation
						JOINT RightElbow
						{
OFFSET 0 -4.722840 0.000000
CHANNELS 3 Zrotation Xrotation Yrotation
							JOINT RightWrist
							{
OFFSET 0 -3.234590 0.000000
CHANNELS 3 Zrotation Xrotation Yrotation
								JOINT rhand
								{
									OFFSET 0 0 0
CHANNELS 3 Zrotation Xrotation Yrotation
									JOINT RFingers
									{
OFFSET 0 -0.307420 0.000000
CHANNELS 3 Zrotation Xrotation Yrotation
										End Site
										{
OFFSET 0 -0.247850 0.000000
										}
									}
								}
								JOINT RThumb
								{
OFFSET 0 0.000000 0.000000
CHANNELS 3 Zrotation Xrotation Yrotation
									End Site
									{
OFFSET 0 -0.251630 0.251630
									}
								}
							}
						}
					}
				}
			}
		}
	}
}
MOTION
Frames: 7
Frame Time: 0.008333333333333333
18.957100 16.534100 -14.399500 -0.793200 -25.376300 10.686000 0.000000 0.000000 0.000000 -22.620500 -42.780300 -2.771900 1.196000 6.939300 19.535700 -0.504200 28.121400 -36.817800 2.291000 9.447500 27.205600 0.000000 0.000000 0.000000 19.546300 30.629800 -8.145300 -1.102100 -6.670700 18.743300 -3.033500 -27.898400 -50.954100 -6.692700 -15.067600 47.702500 1.042200 0.950300 -6.840600 1.265900 1.185500 -6.722900 0.771200 0.556300 -3.123000 -3.782700 0.712800 -8.347100 9.655000 -0.471700 20.353500 3.784200 0.333300 7.630700 0.000000 0.000000 0.000000 2.335500 11.551400 -50.532900 61.928200 -56.802200 35.950100 -16.763100 -26.283100 -47.826200 0.000000 0.000000 0.000000 -7.125000 0.000000 0.000000 -72.050000 63.940200 42.781000 0.000000 0.000000 0.000000 -11.359100 7.696600 55.093700 -35.672000 -45.286100 -15.289000 -22.049800 -52.719100 -18.605100 0.000000 0.000000 0.000000 7.125000 0.000000 -0.000000 3.966000 10.056700 3.220500
19.029723 16.538843 -14.391597 -0.541940 -26.095555 10.542434 0.000000 0.000000 0.000000 -23.263022 -42.850256 -2.316550 1.111739 6.698532 18.825285 -1.308593 30.390977 -36.072732 1.930180 8.711646 24.902302 0.000000 0.000000 0.000000 18.827503 30.229974 -9.100391 -1.204623 -6.963150 19.606240 -2.222664 -29.117733 -49.368724 -6.246217 -14.662648 45.961864 0.793753 0.897071 -6.737571 1.169274 1.123679 -6.623288 0.807039 0.533177 -3.077695 -4.611727 -0.057534 -7.674941 9.669275 -1.378950 19.630687 3.829270 -0.189827 7.342438 0.000000 0.000000 0.000000 2.091290 11.416728 -49.513108 61.533927 -56.705019 35.620333 -15.984274 -25.311269 -47.987719 0.000000 0.000000 0.000000 -7.125000 0.000000 0.000000 -71.778280 64.242160 42.974434 0.000000 0.000000 0.000000 -11.321555 7.175243 55.315566 -35.553767 -45.203548 -15.204948 -22.379940 -52.710215 -17.796663 0.000000 0.000000 0.000000 7.125000 0.000000 0.000000 3.689843 10.866637 2.934581
19.088691 16.538425 -14.385146 -0.383682 -26.827139 10.376838 0.000000 0.000000 0.000000 -23.446690 -41.391814 -2.876817 1.093302 6.644641 18.666657 -1.507733 30.436839 -35.024153 1.604695 7.988151 22.678485 0.000000 0.000000 0.000000 18.360924 30.331123 -9.248540 -1.212403 -6.984820 19.670385 -2.019862 -29.126144 -48.679249 -6.078046 -14.503529 45.294203 0.428727 0.844464 -6.523689 1.055618 1.068351 -6.537470 0.889182 0.517476 -3.110041 -5.171352 -1.357105 -7.597074 9.418909 -3.011463 19.005352 3.689072 -1.046247 7.260684 0.000000 0.000000 0.000000 2.438289 11.173544 -49.811872 60.883776 -56.540906 35.077410 -16.398877 -25.546590 -48.204184 0.000000 0.000000 0.000000 -7.125000 0.000000 0.000000 -72.470749 64.207608 43.538897 0.000000 0.000000 0.000000 -10.905421 6.921372 55.013619 -35.401553 -45.096783 -15.097083 -22.868214 -53.050290 -18.951167 0.000000 0.000000 0.000000 7.125000 0.000000 0.000000 3.461069 9.570882 2.842712
19.149581 16.542160 -14.377745 -0.390845 -27.302029 10.261835 0.000000 0.000000 0.000000 -23.518071 -40.016320 -3.318211 1.071856 6.581184 18.480368 -1.513352 29.953143 -34.107403 1.489663 7.710456 21.838210 0.000000 0.000000 0.000000 18.133485 30.729854 -9.162394 -1.212653 -6.985536 19.672442 -1.488629 -30.087411 -47.810199 -5.901056 -14.331677 44.583207 0.075339 0.521236 -6.228229 1.261205 0.656850 -6.548233 1.281745 0.329818 -3.287332 -6.070256 -2.228966 -6.845741 9.507838 -4.070749 18.089147 3.768120 -1.643044 6.934539 0.000000 0.000000 0.000000 2.114588 11.410540 -49.342961 61.002740 -56.571185 35.176758 -16.818459 -25.857791 -48.468262 0.000000 0.000000 0.000000 -7.125000 0.000000 0.000000 -73.251024 64.188731 44.211588 0.000000 0.000000 0.000000 -11.197245 6.934984 55.503753 -35.599408 -45.235423 -15.237342 -23.773203 -53.648465 -19.275735 0.000000 0.000000 0.000000 7.125000 0.000000 0.000000 2.903550 9.086311 2.410436
19.208534 16.534976 -14.353715 -0.499396 -28.119334 10.351119 0.000000 0.000000 0.000000 -23.985734 -41.582462 -2.298718 1.044607 6.499878 18.241806 -0.984096 29.919014 -37.052909 2.028769 8.925551 25.562855 0.000000 0.000000 0.000000 17.841570 31.045891 -9.513542 -1.240790 -7.063209 19.902644 -1.068095 -30.708929 -46.987649 -5.628127 -14.057947 43.470288 0.163699 0.528528 -6.402765 1.100368 0.656249 -6.504570 1.067921 0.321139 -3.141008 -6.037385 -3.023436 -6.484632 9.386117 -5.158699 17.833590 3.628880 -2.189812 6.878813 0.000000 0.000000 0.000000 2.539897 11.292619 -49.879553 60.570708 -56.460153 34.816369 -15.983081 -25.404892 -48.200989 0.000000 0.000000 0.000000 -7.125000 0.000000 0.000000 -72.167044 64.331973 43.446136 0.000000 0.000000 0.000000 -10.781334 6.836841 55.327459 -35.631297 -45.257693 -15.260085 -23.284840 -52.865406 -18.966277 0.000000 0.000000 0.000000 7.125000 0.000000 0.000000 3.192110 9.492074 2.625844
19.257839 16.527337 -14.337260 -0.721737 -29.058157 10.364458 0.000000 0.000000 0.000000 -24.328401 -42.247398 -1.698187 1.062997 6.555008 18.403550 -0.557478 29.856087 -39.116951 2.481467 9.801244 28.337964 0.000000 0.000000 0.000000 17.804878 31.148839 -9.571881 -1.232555 -7.040580 19.835736 -0.382644 -31.520404 -45.404755 -5.298138 -13.711844 42.095240 0.197788 0.487661 -6.216759 1.176839 0.601951 -6.531194 1.124319 0.293575 -3.272048 -6.360244 -3.294642 -6.545811 9.490995 -5.536174 18.077381 3.687246 -2.382347 7.011688 0.000000 0.000000 0.000000 2.433485 11.296411 -49.775224 60.428973 -56.423139 34.698252 -17.464433 -26.416115 -48.097821 0.000000 0.000000 0.000000 -7.125000 0.000000 0.000000 -73.041057 63.843298 43.523539 0.000000 0.000000 0.000000 -10.968008 6.849881 56.006038 -35.807582 -45.380233 -15.385364 -22.567007 -52.683562 -18.441774 0.000000 0.000000 0.000000 7.125000 0.000000 0.000000 3.616097 10.155132 2.927572
19.305029 16.522852 -14.316415 -0.955316 -30.222503 10.418373 0.000000 0.000000 0.000000 -24.227672 -40.877402 -2.108485 1.056808 6.536284 18.348668 -0.533768 29.546481 -38.778085 2.527225 9.887102 28.611918 0.000000 0.000000 0.000000 17.771259 31.614045 -9.581478 -1.236616 -7.051701 19.868620 -0.266937 -31.216823 -44.573273 -5.405643 -13.826168 42.546289 0.294821 0.498639 -6.131890 1.278498 0.613068 -6.616312 1.174568 0.296240 -3.409122 -6.438219 -3.250032 -6.898363 9.220053 -5.489507 19.108217 3.622882 -2.368823 7.399480 0.000000 0.000000 0.000000 2.100031 12.065326 -49.741077 60.993082 -56.568761 35.168646 -18.655032 -27.217637 -48.522716 0.000000 0.000000 0.000000 -7.125000 0.000000 0.000000 -74.644472 63.656965 44.705555 0.000000 0.000000 0.000000 -11.553746 7.124666 56.874544 -36.335720 -45.742658 -15.762467 -23.847483 -54.876316 -18.044816 0.000000 0.000000 0.000000 7.125000 0.000000 0.000000 2.746603 10.391763 2.208833
